<mxfile host="65bd71144e" pages="4">
    <diagram id="6Jc-0pdUitwvQ6ukHMKt" name="CLASES">
        <mxGraphModel dx="3023" dy="2123" grid="1" gridSize="10" guides="1" tooltips="1" connect="1" arrows="1" fold="1" page="1" pageScale="1" pageWidth="827" pageHeight="1169" math="0" shadow="0">
            <root>
                <mxCell id="0"/>
                <mxCell id="1" parent="0"/>
                <mxCell id="bO8I1QGUQ7A1xS6eJJKW-1" value="&lt;p style=&quot;margin:0px;margin-top:4px;text-align:center;&quot;&gt;&lt;b&gt;Producto&lt;/b&gt;&lt;/p&gt;&lt;hr size=&quot;1&quot;&gt;&lt;p style=&quot;margin:0px;margin-left:4px;&quot;&gt;- codigo: string&lt;br&gt;&lt;/p&gt;&lt;p style=&quot;margin:0px;margin-left:4px;&quot;&gt;- nombre: string&lt;/p&gt;&lt;hr size=&quot;1&quot;&gt;&lt;p style=&quot;margin:0px;margin-left:4px;&quot;&gt;+ clone(): Producto&lt;/p&gt;&lt;p style=&quot;margin:0px;margin-left:4px;&quot;&gt;+ getInfo(): string&lt;/p&gt;" style="verticalAlign=top;align=left;overflow=fill;fontSize=12;fontFamily=Helvetica;html=1;rounded=0;shadow=0;comic=0;labelBackgroundColor=none;strokeWidth=1" parent="1" vertex="1">
                    <mxGeometry x="460" y="60" width="200" height="115" as="geometry"/>
                </mxCell>
                <mxCell id="bO8I1QGUQ7A1xS6eJJKW-2" value="&lt;p style=&quot;margin:0px;margin-top:4px;text-align:center;&quot;&gt;&lt;b&gt;Existencia&lt;/b&gt;&lt;/p&gt;&lt;hr size=&quot;1&quot;&gt;&lt;p style=&quot;margin:0px;margin-left:4px;&quot;&gt;- stock: unsignedint&lt;/p&gt;&lt;p style=&quot;margin:0px;margin-left:4px;&quot;&gt;- minimo: unsignedint&lt;/p&gt;&lt;p style=&quot;margin:0px;margin-left:4px;&quot;&gt;- producto: Producto&lt;/p&gt;&lt;p style=&quot;margin:0px;margin-left:4px;&quot;&gt;- almacen: Almacen&lt;/p&gt;&lt;hr size=&quot;1&quot;&gt;&lt;p style=&quot;margin:0px;margin-left:4px;&quot;&gt;&lt;br&gt;&lt;/p&gt;" style="verticalAlign=top;align=left;overflow=fill;fontSize=12;fontFamily=Helvetica;html=1;rounded=0;shadow=0;comic=0;labelBackgroundColor=none;strokeWidth=1" parent="1" vertex="1">
                    <mxGeometry x="55" y="495" width="210" height="130" as="geometry"/>
                </mxCell>
                <mxCell id="bO8I1QGUQ7A1xS6eJJKW-3" value="&lt;p style=&quot;margin:0px;margin-top:4px;text-align:center;&quot;&gt;&lt;b&gt;Almacen&lt;/b&gt;&amp;nbsp;(Composite)&lt;/p&gt;&lt;hr size=&quot;1&quot;&gt;&lt;p style=&quot;margin:0px;margin-left:4px;&quot;&gt;- nombre: string&lt;br&gt;&lt;/p&gt;&lt;p style=&quot;margin:0px;margin-left:4px;&quot;&gt;- ubicacion: string&lt;/p&gt;&lt;p style=&quot;margin:0px;margin-left:4px;&quot;&gt;- items: List&amp;lt;Existencia&amp;gt;&lt;/p&gt;&lt;p style=&quot;margin:0px;margin-left:4px;&quot;&gt;- ingresos: List&amp;lt;&lt;span style=&quot;text-align: center;&quot;&gt;ITransaccionInventario&lt;/span&gt;&amp;gt;&lt;/p&gt;&lt;p style=&quot;margin:0px;margin-left:4px;&quot;&gt;- salidas: List&amp;lt;&lt;span style=&quot;text-align: center;&quot;&gt;ITransaccionInventario&lt;/span&gt;&amp;gt;&lt;/p&gt;&lt;hr size=&quot;1&quot;&gt;&lt;p style=&quot;margin: 0px 0px 0px 4px;&quot;&gt;+ registrarIngreso(transaccion: ITransaccionInventario): void&lt;/p&gt;&lt;p style=&quot;margin: 0px 0px 0px 4px;&quot;&gt;+ registrarSalida(transaccion: ITransaccionInventario): void&lt;/p&gt;&lt;p style=&quot;margin: 0px 0px 0px 4px;&quot;&gt;&lt;br&gt;&lt;/p&gt;&lt;p style=&quot;margin: 0px 0px 0px 4px;&quot;&gt;- registrarItemIngreso(item: ItemTransaccionInventario): void&lt;/p&gt;&lt;p style=&quot;margin: 0px 0px 0px 4px;&quot;&gt;- registrarItemSalida(item: ItemTransaccionInventario): void&lt;/p&gt;" style="verticalAlign=top;align=left;overflow=fill;fontSize=12;fontFamily=Helvetica;html=1;rounded=0;shadow=0;comic=0;labelBackgroundColor=none;strokeWidth=1" parent="1" vertex="1">
                    <mxGeometry x="20" y="230" width="340" height="200" as="geometry"/>
                </mxCell>
                <mxCell id="bO8I1QGUQ7A1xS6eJJKW-4" value="&lt;p style=&quot;margin:0px;margin-top:4px;text-align:center;&quot;&gt;&lt;b&gt;Ingreso&lt;/b&gt;&lt;/p&gt;&lt;hr size=&quot;1&quot;&gt;&lt;p style=&quot;margin: 0px 0px 0px 4px;&quot;&gt;- observacion: string&lt;br&gt;&lt;/p&gt;&lt;p style=&quot;margin: 0px 0px 0px 4px;&quot;&gt;- fechaTransaccion: date&lt;/p&gt;&lt;p style=&quot;margin: 0px 0px 0px 4px;&quot;&gt;- almacen: Almacen&lt;/p&gt;&lt;p style=&quot;margin: 0px 0px 0px 4px;&quot;&gt;- items: List&amp;lt;&lt;span style=&quot;text-align: center;&quot;&gt;ItemTransaccionInventario&lt;/span&gt;&amp;gt;&lt;/p&gt;&lt;p style=&quot;margin:0px;margin-left:4px;&quot;&gt;- proveedor: Proveedor&lt;/p&gt;&lt;hr size=&quot;1&quot;&gt;&lt;p style=&quot;margin: 0px 0px 0px 4px;&quot;&gt;+ getItems(): List&amp;lt;ItemTransaccionInventario&amp;gt;&lt;/p&gt;&lt;p style=&quot;margin: 0px 0px 0px 4px;&quot;&gt;+ registrarEnInventario(inventario: IInventario): void&lt;/p&gt;" style="verticalAlign=top;align=left;overflow=fill;fontSize=12;fontFamily=Helvetica;html=1;rounded=0;shadow=0;comic=0;labelBackgroundColor=none;strokeWidth=1" parent="1" vertex="1">
                    <mxGeometry x="330" y="477.5" width="280" height="152.5" as="geometry"/>
                </mxCell>
                <mxCell id="bO8I1QGUQ7A1xS6eJJKW-5" value="&lt;p style=&quot;margin:0px;margin-top:4px;text-align:center;&quot;&gt;&lt;b&gt;Salida&lt;/b&gt;&lt;/p&gt;&lt;hr size=&quot;1&quot;&gt;&lt;p style=&quot;margin: 0px 0px 0px 4px;&quot;&gt;- observacion: string&lt;br&gt;&lt;/p&gt;&lt;p style=&quot;margin: 0px 0px 0px 4px;&quot;&gt;- fechaTransaccion: date&lt;/p&gt;&lt;p style=&quot;margin: 0px 0px 0px 4px;&quot;&gt;- almacen: Almacen&lt;/p&gt;&lt;p style=&quot;margin: 0px 0px 0px 4px;&quot;&gt;- items: List&amp;lt;&lt;span style=&quot;text-align: center;&quot;&gt;ItemTransaccionInventario&lt;/span&gt;&amp;gt;&lt;/p&gt;&lt;hr size=&quot;1&quot;&gt;&lt;p style=&quot;margin: 0px 0px 0px 4px;&quot;&gt;+ getItems(): List&amp;lt;ItemTransaccionInventario&amp;gt;&lt;/p&gt;&lt;p style=&quot;margin: 0px 0px 0px 4px;&quot;&gt;+ registrarEnInventario(inventario: IInventario): void&lt;/p&gt;" style="verticalAlign=top;align=left;overflow=fill;fontSize=12;fontFamily=Helvetica;html=1;rounded=0;shadow=0;comic=0;labelBackgroundColor=none;strokeWidth=1" parent="1" vertex="1">
                    <mxGeometry x="650" y="500" width="290" height="140" as="geometry"/>
                </mxCell>
                <mxCell id="bO8I1QGUQ7A1xS6eJJKW-6" value="&lt;p style=&quot;margin:0px;margin-top:4px;text-align:center;&quot;&gt;&lt;b&gt;Proveedor&lt;/b&gt;&lt;/p&gt;&lt;hr size=&quot;1&quot;&gt;&lt;p style=&quot;margin:0px;margin-left:4px;&quot;&gt;- nombre: string&lt;br&gt;&lt;/p&gt;&lt;p style=&quot;margin:0px;margin-left:4px;&quot;&gt;- nit: string&lt;/p&gt;&lt;hr size=&quot;1&quot;&gt;&lt;p style=&quot;margin:0px;margin-left:4px;&quot;&gt;&lt;br&gt;&lt;/p&gt;" style="verticalAlign=top;align=left;overflow=fill;fontSize=12;fontFamily=Helvetica;html=1;rounded=0;shadow=0;comic=0;labelBackgroundColor=none;strokeWidth=1" parent="1" vertex="1">
                    <mxGeometry x="100" y="900" width="200" height="90" as="geometry"/>
                </mxCell>
                <mxCell id="bO8I1QGUQ7A1xS6eJJKW-7" value="&lt;p style=&quot;margin:0px;margin-top:4px;text-align:center;&quot;&gt;&lt;b&gt;ItemTransaccionInventario&lt;/b&gt;&lt;/p&gt;&lt;hr size=&quot;1&quot;&gt;&lt;p style=&quot;margin:0px;margin-left:4px;&quot;&gt;- cantidad: unsignedint&lt;br&gt;&lt;/p&gt;&lt;p style=&quot;margin:0px;margin-left:4px;&quot;&gt;- precio: decimal&lt;/p&gt;&lt;p style=&quot;margin:0px;margin-left:4px;&quot;&gt;- lote: Lote&lt;/p&gt;&lt;hr size=&quot;1&quot;&gt;&lt;p style=&quot;margin:0px;margin-left:4px;&quot;&gt;&lt;br&gt;&lt;/p&gt;" style="verticalAlign=top;align=left;overflow=fill;fontSize=12;fontFamily=Helvetica;html=1;rounded=0;shadow=0;comic=0;labelBackgroundColor=none;strokeWidth=1" parent="1" vertex="1">
                    <mxGeometry x="300" y="690" width="200" height="110" as="geometry"/>
                </mxCell>
                <mxCell id="bO8I1QGUQ7A1xS6eJJKW-8" value="&lt;p style=&quot;margin:0px;margin-top:4px;text-align:center;&quot;&gt;&lt;b&gt;Lote&lt;/b&gt;&lt;/p&gt;&lt;hr size=&quot;1&quot;&gt;&lt;p style=&quot;margin:0px;margin-left:4px;&quot;&gt;- codigo: string&lt;br&gt;&lt;/p&gt;&lt;p style=&quot;margin:0px;margin-left:4px;&quot;&gt;- fechaExpiracion: date&lt;/p&gt;&lt;p style=&quot;margin:0px;margin-left:4px;&quot;&gt;- producto: Producto&lt;/p&gt;&lt;hr size=&quot;1&quot;&gt;&lt;p style=&quot;margin:0px;margin-left:4px;&quot;&gt;&lt;br&gt;&lt;/p&gt;" style="verticalAlign=top;align=left;overflow=fill;fontSize=12;fontFamily=Helvetica;html=1;rounded=0;shadow=0;comic=0;labelBackgroundColor=none;strokeWidth=1" parent="1" vertex="1">
                    <mxGeometry x="40" y="730" width="200" height="110" as="geometry"/>
                </mxCell>
                <mxCell id="bO8I1QGUQ7A1xS6eJJKW-10" value="&lt;p style=&quot;margin:0px;margin-top:4px;text-align:center;&quot;&gt;&lt;b&gt;Cliente&lt;/b&gt;&lt;/p&gt;&lt;hr size=&quot;1&quot;&gt;&lt;p style=&quot;margin:0px;margin-left:4px;&quot;&gt;- nombre: string&lt;br&gt;&lt;/p&gt;&lt;p style=&quot;margin:0px;margin-left:4px;&quot;&gt;- direccion: string&lt;/p&gt;&lt;hr size=&quot;1&quot;&gt;&lt;p style=&quot;margin:0px;margin-left:4px;&quot;&gt;&lt;br&gt;&lt;/p&gt;" style="verticalAlign=top;align=left;overflow=fill;fontSize=12;fontFamily=Helvetica;html=1;rounded=0;shadow=0;comic=0;labelBackgroundColor=none;strokeWidth=1" parent="1" vertex="1">
                    <mxGeometry x="723.5" y="1230" width="200" height="90" as="geometry"/>
                </mxCell>
                <mxCell id="bO8I1QGUQ7A1xS6eJJKW-11" value="&lt;p style=&quot;margin:0px;margin-top:4px;text-align:center;&quot;&gt;&lt;b&gt;Carrito&lt;/b&gt;&lt;/p&gt;&lt;hr size=&quot;1&quot;&gt;&lt;p style=&quot;margin:0px;margin-left:4px;&quot;&gt;&lt;span style=&quot;background-color: transparent; color: light-dark(rgb(0, 0, 0), rgb(255, 255, 255));&quot;&gt;- cliente: Cliente&lt;/span&gt;&lt;/p&gt;&lt;p style=&quot;margin:0px;margin-left:4px;&quot;&gt;&lt;span style=&quot;background-color: transparent; color: light-dark(rgb(0, 0, 0), rgb(255, 255, 255));&quot;&gt;- items: List&amp;lt;ItemCarrito&amp;gt;&lt;/span&gt;&lt;/p&gt;&lt;hr size=&quot;1&quot;&gt;&lt;p style=&quot;margin:0px;margin-left:4px;&quot;&gt;+ agregarItem(item: CarritoItem): void&lt;/p&gt;&lt;p style=&quot;margin:0px;margin-left:4px;&quot;&gt;+ eliminarItem(codigo: string): void&lt;/p&gt;&lt;p style=&quot;margin:0px;margin-left:4px;&quot;&gt;+ vaciar(): void&lt;br&gt;+ getItems(): List&amp;lt;CarritoItem&amp;gt;&lt;/p&gt;" style="verticalAlign=top;align=left;overflow=fill;fontSize=12;fontFamily=Helvetica;html=1;rounded=0;shadow=0;comic=0;labelBackgroundColor=none;strokeWidth=1" parent="1" vertex="1">
                    <mxGeometry x="105" y="1380" width="220" height="140" as="geometry"/>
                </mxCell>
                <mxCell id="bO8I1QGUQ7A1xS6eJJKW-12" value="&lt;p style=&quot;margin:0px;margin-top:4px;text-align:center;&quot;&gt;&lt;b&gt;CarritoItem&lt;/b&gt;&lt;/p&gt;&lt;hr size=&quot;1&quot;&gt;&lt;p style=&quot;margin:0px;margin-left:4px;&quot;&gt;&lt;span style=&quot;background-color: transparent; color: light-dark(rgb(0, 0, 0), rgb(255, 255, 255));&quot;&gt;- carrito: Carrito&lt;/span&gt;&lt;/p&gt;&lt;p style=&quot;margin:0px;margin-left:4px;&quot;&gt;&lt;span style=&quot;background-color: transparent; color: light-dark(rgb(0, 0, 0), rgb(255, 255, 255));&quot;&gt;- producto: Producto&lt;/span&gt;&lt;/p&gt;&lt;p style=&quot;margin:0px;margin-left:4px;&quot;&gt;&lt;span style=&quot;background-color: transparent; color: light-dark(rgb(0, 0, 0), rgb(255, 255, 255));&quot;&gt;- cantidad: unsignedint&lt;/span&gt;&lt;/p&gt;&lt;p style=&quot;margin:0px;margin-left:4px;&quot;&gt;&lt;span style=&quot;background-color: transparent; color: light-dark(rgb(0, 0, 0), rgb(255, 255, 255));&quot;&gt;- precioUnitario: decimal&lt;/span&gt;&lt;/p&gt;&lt;hr size=&quot;1&quot;&gt;&lt;p style=&quot;margin:0px;margin-left:4px;&quot;&gt;+ subtotal(): decimal&lt;/p&gt;" style="verticalAlign=top;align=left;overflow=fill;fontSize=12;fontFamily=Helvetica;html=1;rounded=0;shadow=0;comic=0;labelBackgroundColor=none;strokeWidth=1" parent="1" vertex="1">
                    <mxGeometry x="30" y="1610" width="190" height="130" as="geometry"/>
                </mxCell>
                <mxCell id="bO8I1QGUQ7A1xS6eJJKW-13" value="&lt;p style=&quot;margin:0px;margin-top:4px;text-align:center;&quot;&gt;&lt;b&gt;Usuario&lt;/b&gt;&lt;/p&gt;&lt;hr size=&quot;1&quot;&gt;&lt;p style=&quot;margin:0px;margin-left:4px;&quot;&gt;- userId: string&lt;br&gt;&lt;/p&gt;&lt;p style=&quot;margin:0px;margin-left:4px;&quot;&gt;- direccion: string&lt;/p&gt;&lt;hr size=&quot;1&quot;&gt;&lt;p style=&quot;margin:0px;margin-left:4px;&quot;&gt;&lt;br&gt;&lt;/p&gt;" style="verticalAlign=top;align=left;overflow=fill;fontSize=12;fontFamily=Helvetica;html=1;rounded=0;shadow=0;comic=0;labelBackgroundColor=none;strokeWidth=1" parent="1" vertex="1">
                    <mxGeometry x="723.5" y="1090" width="200" height="90" as="geometry"/>
                </mxCell>
                <mxCell id="bO8I1QGUQ7A1xS6eJJKW-14" value="&lt;p style=&quot;margin:0px;margin-top:4px;text-align:center;&quot;&gt;&lt;b&gt;OrdenCompra&lt;/b&gt;&lt;/p&gt;&lt;hr size=&quot;1&quot;&gt;&lt;p style=&quot;margin:0px;margin-left:4px;&quot;&gt;- carrito: Carrito&lt;br&gt;&lt;/p&gt;&lt;p style=&quot;margin:0px;margin-left:4px;&quot;&gt;- metodoPago: IMetodoPago&lt;/p&gt;&lt;hr size=&quot;1&quot;&gt;&lt;p style=&quot;margin:0px;margin-left:4px;&quot;&gt;&lt;br&gt;&lt;/p&gt;" style="verticalAlign=top;align=left;overflow=fill;fontSize=12;fontFamily=Helvetica;html=1;rounded=0;shadow=0;comic=0;labelBackgroundColor=none;strokeWidth=1" parent="1" vertex="1">
                    <mxGeometry x="460" y="1380" width="200" height="90" as="geometry"/>
                </mxCell>
                <mxCell id="tM9GfROuwodkPhQ_XWy0-1" value="&lt;p style=&quot;margin:0px;margin-top:4px;text-align:center;&quot;&gt;&lt;i&gt;&amp;lt;&amp;lt;Interface&amp;gt;&amp;gt;&lt;/i&gt;&lt;br&gt;&lt;b&gt;IMetodoPagoStrategy&lt;/b&gt;&lt;/p&gt;&lt;hr size=&quot;1&quot;&gt;&lt;p style=&quot;margin:0px;margin-left:4px;&quot;&gt;&lt;br&gt;&lt;/p&gt;&lt;hr size=&quot;1&quot;&gt;&lt;p style=&quot;margin:0px;margin-left:4px;&quot;&gt;+ procesarPago(monto: number): boolean&lt;/p&gt;" style="verticalAlign=top;align=left;overflow=fill;fontSize=12;fontFamily=Helvetica;html=1;rounded=0;shadow=0;comic=0;labelBackgroundColor=none;strokeWidth=1" parent="1" vertex="1">
                    <mxGeometry x="750" y="1370" width="260" height="110" as="geometry"/>
                </mxCell>
                <mxCell id="tM9GfROuwodkPhQ_XWy0-2" value="&lt;p style=&quot;margin:0px;margin-top:4px;text-align:center;&quot;&gt;&lt;b&gt;PagoTarjetaDebito&lt;/b&gt;&lt;/p&gt;&lt;hr size=&quot;1&quot;&gt;&lt;p style=&quot;margin:0px;margin-left:4px;&quot;&gt;- numeroTarjeta: string&lt;br&gt;&lt;/p&gt;&lt;p style=&quot;margin:0px;margin-left:4px;&quot;&gt;- cvv: string&lt;/p&gt;&lt;hr size=&quot;1&quot;&gt;&lt;p style=&quot;margin:0px;margin-left:4px;&quot;&gt;+ procesarPago(monto: number): boolean&lt;/p&gt;" style="verticalAlign=top;align=left;overflow=fill;fontSize=12;fontFamily=Helvetica;html=1;rounded=0;shadow=0;comic=0;labelBackgroundColor=none;strokeWidth=1" parent="1" vertex="1">
                    <mxGeometry x="580" y="1600" width="240" height="100" as="geometry"/>
                </mxCell>
                <mxCell id="tM9GfROuwodkPhQ_XWy0-3" value="&lt;p style=&quot;margin:0px;margin-top:4px;text-align:center;&quot;&gt;&lt;b&gt;TransferenciaQR&lt;/b&gt;&lt;/p&gt;&lt;hr size=&quot;1&quot;&gt;&lt;p style=&quot;margin:0px;margin-left:4px;&quot;&gt;- qr: string&lt;br&gt;&lt;/p&gt;&lt;hr size=&quot;1&quot;&gt;&lt;p style=&quot;margin:0px;margin-left:4px;&quot;&gt;+ procesarPago(monto: number): boolean&lt;/p&gt;" style="verticalAlign=top;align=left;overflow=fill;fontSize=12;fontFamily=Helvetica;html=1;rounded=0;shadow=0;comic=0;labelBackgroundColor=none;strokeWidth=1" parent="1" vertex="1">
                    <mxGeometry x="860" y="1600" width="240" height="90" as="geometry"/>
                </mxCell>
                <mxCell id="tM9GfROuwodkPhQ_XWy0-4" value="&lt;p style=&quot;margin:0px;margin-top:4px;text-align:center;&quot;&gt;&lt;i&gt;&amp;lt;&amp;lt;Interface&amp;gt;&amp;gt;&lt;/i&gt;&lt;b&gt;&lt;/b&gt;&lt;/p&gt;&lt;p style=&quot;margin:0px;margin-top:4px;text-align:center;&quot;&gt;&lt;b&gt;ITransaccionInventario&lt;/b&gt;&lt;/p&gt;&lt;hr size=&quot;1&quot;&gt;&lt;p style=&quot;margin:0px;margin-left:4px;&quot;&gt;&lt;br&gt;&lt;/p&gt;&lt;hr size=&quot;1&quot;&gt;&lt;p style=&quot;margin: 0px 0px 0px 4px;&quot;&gt;+ setObservacion(observacion: string): this&lt;/p&gt;&lt;p style=&quot;margin: 0px 0px 0px 4px;&quot;&gt;+ setFechaTransaccion(fecha: date): this&lt;/p&gt;&lt;p style=&quot;margin: 0px 0px 0px 4px;&quot;&gt;+ setItems(items: List&amp;lt;ItemTransaccionInventario&amp;gt;): this&lt;/p&gt;&lt;p style=&quot;margin:0px;margin-left:4px;&quot;&gt;+ getItems(): List&amp;lt;ItemTransaccionInventario&amp;gt;&lt;/p&gt;&lt;p style=&quot;margin:0px;margin-left:4px;&quot;&gt;+ registrarEnInventario(inventario: IInventario): void&lt;/p&gt;" style="verticalAlign=top;align=left;overflow=fill;fontSize=12;fontFamily=Helvetica;html=1;rounded=0;shadow=0;comic=0;labelBackgroundColor=none;strokeWidth=1" parent="1" vertex="1">
                    <mxGeometry x="450" y="255" width="320" height="165" as="geometry"/>
                </mxCell>
                <mxCell id="_q7ptosy-dTuqd6s-znJ-1" style="rounded=0;html=1;labelBackgroundColor=none;startFill=0;endArrow=block;endFill=0;endSize=10;fontFamily=Verdana;fontSize=10;dashed=1;entryX=0.25;entryY=1;entryDx=0;entryDy=0;exitX=0.5;exitY=0;exitDx=0;exitDy=0;startSize=10;edgeStyle=orthogonalEdgeStyle;" parent="1" source="bO8I1QGUQ7A1xS6eJJKW-4" target="tM9GfROuwodkPhQ_XWy0-4" edge="1">
                    <mxGeometry relative="1" as="geometry">
                        <mxPoint x="570" y="477.5" as="sourcePoint"/>
                        <mxPoint x="570" y="417.5" as="targetPoint"/>
                        <Array as="points">
                            <mxPoint x="470" y="450"/>
                            <mxPoint x="530" y="450"/>
                        </Array>
                    </mxGeometry>
                </mxCell>
                <mxCell id="_q7ptosy-dTuqd6s-znJ-2" style="rounded=0;html=1;labelBackgroundColor=none;startFill=0;endArrow=block;endFill=0;endSize=10;fontFamily=Verdana;fontSize=10;dashed=1;entryX=0.75;entryY=1;entryDx=0;entryDy=0;exitX=0.25;exitY=0;exitDx=0;exitDy=0;startSize=10;edgeStyle=orthogonalEdgeStyle;" parent="1" source="bO8I1QGUQ7A1xS6eJJKW-5" target="tM9GfROuwodkPhQ_XWy0-4" edge="1">
                    <mxGeometry relative="1" as="geometry">
                        <mxPoint x="690" y="457.5" as="sourcePoint"/>
                        <mxPoint x="690" y="397.5" as="targetPoint"/>
                        <Array as="points">
                            <mxPoint x="723" y="460"/>
                            <mxPoint x="690" y="460"/>
                        </Array>
                    </mxGeometry>
                </mxCell>
                <mxCell id="_q7ptosy-dTuqd6s-znJ-3" value="&lt;p style=&quot;margin:0px;margin-top:4px;text-align:center;&quot;&gt;&lt;b style=&quot;background-color: transparent; color: light-dark(rgb(0, 0, 0), rgb(255, 255, 255));&quot;&gt;TransaccionInventario&lt;/b&gt;&lt;b style=&quot;background-color: transparent; color: light-dark(rgb(0, 0, 0), rgb(255, 255, 255));&quot;&gt;Factory&lt;/b&gt;&lt;/p&gt;&lt;hr size=&quot;1&quot;&gt;&lt;p style=&quot;margin:0px;margin-left:4px;&quot;&gt;&lt;br&gt;&lt;/p&gt;&lt;hr size=&quot;1&quot;&gt;&lt;p style=&quot;margin:0px;margin-left:4px;&quot;&gt;+ create():&amp;nbsp;&lt;span style=&quot;background-color: transparent; color: light-dark(rgb(0, 0, 0), rgb(255, 255, 255)); text-align: center;&quot;&gt;ITransaccionInventarioBuilder&lt;/span&gt;&lt;/p&gt;" style="verticalAlign=top;align=left;overflow=fill;fontSize=12;fontFamily=Helvetica;html=1;rounded=0;shadow=0;comic=0;labelBackgroundColor=none;strokeWidth=1" parent="1" vertex="1">
                    <mxGeometry x="130" y="1070" width="260" height="90" as="geometry"/>
                </mxCell>
                <mxCell id="N7AFj5fIpvBgtcSf3Lqp-1" value="&lt;p style=&quot;margin:0px;margin-top:4px;text-align:center;&quot;&gt;&lt;b&gt;IngresoFactory&lt;/b&gt;&lt;/p&gt;&lt;hr size=&quot;1&quot;&gt;&lt;p style=&quot;margin:0px;margin-left:4px;&quot;&gt;&lt;br&gt;&lt;/p&gt;&lt;hr size=&quot;1&quot;&gt;&lt;p style=&quot;margin:0px;margin-left:4px;&quot;&gt;+ create():&amp;nbsp;&lt;span style=&quot;background-color: transparent; color: light-dark(rgb(0, 0, 0), rgb(255, 255, 255)); text-align: center;&quot;&gt;ITransaccionInventarioBuilder&lt;/span&gt;&lt;/p&gt;" style="verticalAlign=top;align=left;overflow=fill;fontSize=12;fontFamily=Helvetica;html=1;rounded=0;shadow=0;comic=0;labelBackgroundColor=none;strokeWidth=1" parent="1" vertex="1">
                    <mxGeometry x="30" y="1230" width="230" height="90" as="geometry"/>
                </mxCell>
                <mxCell id="N7AFj5fIpvBgtcSf3Lqp-2" value="&lt;p style=&quot;margin:0px;margin-top:4px;text-align:center;&quot;&gt;&lt;b&gt;SalidaFactory&lt;/b&gt;&lt;/p&gt;&lt;hr size=&quot;1&quot;&gt;&lt;p style=&quot;margin:0px;margin-left:4px;&quot;&gt;&lt;br&gt;&lt;/p&gt;&lt;hr size=&quot;1&quot;&gt;&lt;p style=&quot;margin:0px;margin-left:4px;&quot;&gt;+ create():&amp;nbsp;&lt;span style=&quot;background-color: transparent; color: light-dark(rgb(0, 0, 0), rgb(255, 255, 255)); text-align: center;&quot;&gt;ITransaccionInventarioBuilder&lt;/span&gt;&lt;/p&gt;" style="verticalAlign=top;align=left;overflow=fill;fontSize=12;fontFamily=Helvetica;html=1;rounded=0;shadow=0;comic=0;labelBackgroundColor=none;strokeWidth=1" parent="1" vertex="1">
                    <mxGeometry x="323.5" y="1230" width="233" height="90" as="geometry"/>
                </mxCell>
                <mxCell id="C9-mXHn5gXexPhczZOM6-1" style="rounded=0;html=1;labelBackgroundColor=none;startFill=0;endArrow=block;endFill=0;fontFamily=Verdana;fontSize=10;exitX=0.5;exitY=0;exitDx=0;exitDy=0;entryX=0.25;entryY=1;entryDx=0;entryDy=0;strokeWidth=1;endSize=10;startSize=10;edgeStyle=orthogonalEdgeStyle;" parent="1" source="N7AFj5fIpvBgtcSf3Lqp-1" target="_q7ptosy-dTuqd6s-znJ-3" edge="1">
                    <mxGeometry relative="1" as="geometry">
                        <mxPoint x="330" y="1217" as="sourcePoint"/>
                        <mxPoint x="330" y="1170" as="targetPoint"/>
                    </mxGeometry>
                </mxCell>
                <mxCell id="C9-mXHn5gXexPhczZOM6-2" style="rounded=0;html=1;labelBackgroundColor=none;startFill=0;endArrow=block;endFill=0;fontFamily=Verdana;fontSize=10;exitX=0.5;exitY=0;exitDx=0;exitDy=0;entryX=0.75;entryY=1;entryDx=0;entryDy=0;strokeWidth=1;endSize=10;startSize=10;edgeStyle=orthogonalEdgeStyle;" parent="1" source="N7AFj5fIpvBgtcSf3Lqp-2" target="_q7ptosy-dTuqd6s-znJ-3" edge="1">
                    <mxGeometry relative="1" as="geometry">
                        <mxPoint x="610" y="1247" as="sourcePoint"/>
                        <mxPoint x="610" y="1200" as="targetPoint"/>
                    </mxGeometry>
                </mxCell>
                <mxCell id="k3IJZTLqtEA-iDNj3EMS-2" value="&lt;p style=&quot;margin:0px;margin-top:4px;text-align:center;&quot;&gt;&lt;i&gt;&amp;lt;&amp;lt;Interface&amp;gt;&amp;gt;&lt;/i&gt;&lt;b&gt;&lt;/b&gt;&lt;/p&gt;&lt;p style=&quot;margin:0px;margin-top:4px;text-align:center;&quot;&gt;&lt;b&gt;IClonable&amp;lt;T&amp;gt;&lt;/b&gt;&lt;/p&gt;&lt;hr size=&quot;1&quot;&gt;&lt;p style=&quot;margin:0px;margin-left:4px;&quot;&gt;&lt;br&gt;&lt;/p&gt;&lt;hr size=&quot;1&quot;&gt;&lt;p style=&quot;margin:0px;margin-left:4px;&quot;&gt;+ clone(): T&lt;/p&gt;" style="verticalAlign=top;align=left;overflow=fill;fontSize=12;fontFamily=Helvetica;html=1;rounded=0;shadow=0;comic=0;labelBackgroundColor=none;strokeWidth=1" parent="1" vertex="1">
                    <mxGeometry x="765" y="90" width="170" height="105" as="geometry"/>
                </mxCell>
                <mxCell id="k3IJZTLqtEA-iDNj3EMS-3" style="rounded=0;html=1;labelBackgroundColor=none;startFill=0;endArrow=block;endFill=0;endSize=10;fontFamily=Verdana;fontSize=10;dashed=1;entryX=0;entryY=0.5;entryDx=0;entryDy=0;exitX=1;exitY=0.5;exitDx=0;exitDy=0;startSize=10;edgeStyle=orthogonalEdgeStyle;" parent="1" source="bO8I1QGUQ7A1xS6eJJKW-1" target="k3IJZTLqtEA-iDNj3EMS-2" edge="1">
                    <mxGeometry relative="1" as="geometry">
                        <mxPoint x="767" y="315" as="sourcePoint"/>
                        <mxPoint x="720" y="230" as="targetPoint"/>
                    </mxGeometry>
                </mxCell>
                <mxCell id="haNKz2vUPsjwH1Ny1CYX-1" style="rounded=0;html=1;labelBackgroundColor=none;startFill=0;endArrow=diamond;endFill=0;fontFamily=Verdana;fontSize=10;exitX=0;exitY=0.25;exitDx=0;exitDy=0;strokeWidth=1;endSize=15;startSize=10;edgeStyle=orthogonalEdgeStyle;entryX=1;entryY=0.75;entryDx=0;entryDy=0;" parent="1" source="tM9GfROuwodkPhQ_XWy0-4" target="bO8I1QGUQ7A1xS6eJJKW-3" edge="1">
                    <mxGeometry relative="1" as="geometry">
                        <mxPoint x="500" y="220" as="sourcePoint"/>
                        <mxPoint x="360" y="210" as="targetPoint"/>
                    </mxGeometry>
                </mxCell>
                <mxCell id="v0U-lQ3r8-SAfi3UWiN2-1" value="&lt;p style=&quot;margin:0px;margin-top:4px;text-align:center;&quot;&gt;&lt;i&gt;&amp;lt;&amp;lt;Interface&amp;gt;&amp;gt;&lt;/i&gt;&lt;/p&gt;&lt;p style=&quot;margin:0px;margin-top:4px;text-align:center;&quot;&gt;&lt;b&gt;IInventario&lt;/b&gt;&lt;/p&gt;&lt;hr size=&quot;1&quot;&gt;&lt;p style=&quot;margin:0px;margin-left:4px;&quot;&gt;&lt;br&gt;&lt;/p&gt;&lt;hr size=&quot;1&quot;&gt;&lt;p style=&quot;margin:0px;margin-left:4px;&quot;&gt;+ registrarIngreso(transaccion: ITransaccionInventario): void&lt;/p&gt;&lt;p style=&quot;margin:0px;margin-left:4px;&quot;&gt;+ registrarSalida(transaccion: ITransaccionInventario): void&lt;/p&gt;" style="verticalAlign=top;align=left;overflow=fill;fontSize=12;fontFamily=Helvetica;html=1;rounded=0;shadow=0;comic=0;labelBackgroundColor=none;strokeWidth=1" parent="1" vertex="1">
                    <mxGeometry x="55" y="45" width="335" height="120" as="geometry"/>
                </mxCell>
                <mxCell id="v0U-lQ3r8-SAfi3UWiN2-2" style="rounded=0;html=1;labelBackgroundColor=none;startFill=0;endArrow=block;endFill=0;endSize=10;fontFamily=Verdana;fontSize=10;dashed=1;entryX=0.5;entryY=1;entryDx=0;entryDy=0;exitX=0.5;exitY=0;exitDx=0;exitDy=0;startSize=10;edgeStyle=orthogonalEdgeStyle;" parent="1" source="bO8I1QGUQ7A1xS6eJJKW-3" target="v0U-lQ3r8-SAfi3UWiN2-1" edge="1">
                    <mxGeometry relative="1" as="geometry">
                        <mxPoint x="455" y="488" as="sourcePoint"/>
                        <mxPoint x="515" y="430" as="targetPoint"/>
                    </mxGeometry>
                </mxCell>
                <mxCell id="v0U-lQ3r8-SAfi3UWiN2-3" style="rounded=0;html=1;labelBackgroundColor=none;startFill=0;endArrow=diamond;endFill=0;fontFamily=Verdana;fontSize=10;exitX=0.5;exitY=0;exitDx=0;exitDy=0;strokeWidth=1;endSize=15;startSize=10;edgeStyle=orthogonalEdgeStyle;entryX=0.5;entryY=1;entryDx=0;entryDy=0;" parent="1" source="bO8I1QGUQ7A1xS6eJJKW-2" target="bO8I1QGUQ7A1xS6eJJKW-3" edge="1">
                    <mxGeometry relative="1" as="geometry">
                        <mxPoint x="440" y="318" as="sourcePoint"/>
                        <mxPoint x="335" y="360" as="targetPoint"/>
                    </mxGeometry>
                </mxCell>
                <mxCell id="1q5tbRpZf26YUvPeJe0H-1" value="&lt;p style=&quot;margin:0px;margin-top:4px;text-align:center;&quot;&gt;&lt;i&gt;&amp;lt;&amp;lt;Interface&amp;gt;&amp;gt;&lt;/i&gt;&lt;b&gt;&lt;/b&gt;&lt;/p&gt;&lt;p style=&quot;margin:0px;margin-top:4px;text-align:center;&quot;&gt;&lt;b&gt;ITransaccionInventarioBuilder&lt;/b&gt;&lt;/p&gt;&lt;hr size=&quot;1&quot;&gt;&lt;p style=&quot;margin:0px;margin-left:4px;&quot;&gt;&lt;br&gt;&lt;/p&gt;&lt;hr size=&quot;1&quot;&gt;&lt;p style=&quot;margin:0px;margin-left:4px;&quot;&gt;+ setObservacion(observacion: string): this&lt;/p&gt;&lt;p style=&quot;margin:0px;margin-left:4px;&quot;&gt;+ setFechaTransaccion(fecha: date): this&lt;/p&gt;&lt;p style=&quot;margin:0px;margin-left:4px;&quot;&gt;+ setItems(items: List&amp;lt;ItemTransaccionInventario&amp;gt;): this&lt;/p&gt;" style="verticalAlign=top;align=left;overflow=fill;fontSize=12;fontFamily=Helvetica;html=1;rounded=0;shadow=0;comic=0;labelBackgroundColor=none;strokeWidth=1" parent="1" vertex="1">
                    <mxGeometry x="620" y="720" width="310" height="130" as="geometry"/>
                </mxCell>
                <mxCell id="1q5tbRpZf26YUvPeJe0H-2" value="&lt;p style=&quot;margin:0px;margin-top:4px;text-align:center;&quot;&gt;&lt;b&gt;IngresoBuilder&lt;/b&gt;&lt;/p&gt;&lt;hr size=&quot;1&quot;&gt;&lt;p style=&quot;margin:0px;margin-left:4px;&quot;&gt;- ingreso: Ingreso&lt;/p&gt;&lt;hr size=&quot;1&quot;&gt;&lt;p style=&quot;margin: 0px 0px 0px 4px;&quot;&gt;+ setObservacion(observacion: string): this&lt;/p&gt;&lt;p style=&quot;margin: 0px 0px 0px 4px;&quot;&gt;+ setFechaTransaccion(fecha: date): this&lt;/p&gt;&lt;p style=&quot;margin: 0px 0px 0px 4px;&quot;&gt;+ setItems(items: List&amp;lt;ItemTransaccionInventario&amp;gt;): this&lt;/p&gt;" style="verticalAlign=top;align=left;overflow=fill;fontSize=12;fontFamily=Helvetica;html=1;rounded=0;shadow=0;comic=0;labelBackgroundColor=none;strokeWidth=1" parent="1" vertex="1">
                    <mxGeometry x="413.5" y="920" width="310" height="110" as="geometry"/>
                </mxCell>
                <mxCell id="1q5tbRpZf26YUvPeJe0H-3" value="&lt;p style=&quot;margin:0px;margin-top:4px;text-align:center;&quot;&gt;&lt;b&gt;SalidaBuilder&lt;/b&gt;&lt;/p&gt;&lt;hr size=&quot;1&quot;&gt;&lt;p style=&quot;margin:0px;margin-left:4px;&quot;&gt;&lt;br&gt;&lt;/p&gt;&lt;hr size=&quot;1&quot;&gt;&lt;p style=&quot;margin: 0px 0px 0px 4px;&quot;&gt;+ setObservacion(observacion: string): this&lt;/p&gt;&lt;p style=&quot;margin: 0px 0px 0px 4px;&quot;&gt;+ setFechaTransaccion(fecha: date): this&lt;/p&gt;&lt;p style=&quot;margin: 0px 0px 0px 4px;&quot;&gt;+ setItems(items: List&amp;lt;ItemTransaccionInventario&amp;gt;): this&lt;/p&gt;" style="verticalAlign=top;align=left;overflow=fill;fontSize=12;fontFamily=Helvetica;html=1;rounded=0;shadow=0;comic=0;labelBackgroundColor=none;strokeWidth=1" parent="1" vertex="1">
                    <mxGeometry x="790" y="920" width="310" height="110" as="geometry"/>
                </mxCell>
                <mxCell id="gbAR25IEDj_0DmWhCTDC-1" style="rounded=0;html=1;labelBackgroundColor=none;startFill=0;endArrow=block;endFill=0;endSize=10;fontFamily=Verdana;fontSize=10;dashed=1;entryX=0.25;entryY=1;entryDx=0;entryDy=0;exitX=0.5;exitY=0;exitDx=0;exitDy=0;startSize=10;edgeStyle=orthogonalEdgeStyle;" parent="1" source="tM9GfROuwodkPhQ_XWy0-2" target="tM9GfROuwodkPhQ_XWy0-1" edge="1">
                    <mxGeometry relative="1" as="geometry">
                        <mxPoint x="205" y="1764" as="sourcePoint"/>
                        <mxPoint x="265" y="1706" as="targetPoint"/>
                    </mxGeometry>
                </mxCell>
                <mxCell id="gbAR25IEDj_0DmWhCTDC-2" style="rounded=0;html=1;labelBackgroundColor=none;startFill=0;endArrow=block;endFill=0;endSize=10;fontFamily=Verdana;fontSize=10;dashed=1;entryX=0.75;entryY=1;entryDx=0;entryDy=0;exitX=0.5;exitY=0;exitDx=0;exitDy=0;startSize=10;edgeStyle=orthogonalEdgeStyle;" parent="1" source="tM9GfROuwodkPhQ_XWy0-3" target="tM9GfROuwodkPhQ_XWy0-1" edge="1">
                    <mxGeometry relative="1" as="geometry">
                        <mxPoint x="534.95" y="1790" as="sourcePoint"/>
                        <mxPoint x="594.95" y="1732" as="targetPoint"/>
                    </mxGeometry>
                </mxCell>
                <mxCell id="WOaFORo6kp0bU8XHf_WQ-1" style="rounded=0;html=1;labelBackgroundColor=none;startFill=0;endArrow=diamond;endFill=1;fontFamily=Verdana;fontSize=10;exitX=0.5;exitY=0;exitDx=0;exitDy=0;entryX=0.5;entryY=1;entryDx=0;entryDy=0;strokeWidth=1;endSize=10;startSize=10;edgeStyle=orthogonalEdgeStyle;" parent="1" source="bO8I1QGUQ7A1xS6eJJKW-12" target="bO8I1QGUQ7A1xS6eJJKW-11" edge="1">
                    <mxGeometry relative="1" as="geometry">
                        <mxPoint x="130" y="1600" as="sourcePoint"/>
                        <mxPoint x="85" y="1860" as="targetPoint"/>
                    </mxGeometry>
                </mxCell>
                <mxCell id="AX_kgKKB1tABfzTBOVU4-1" style="rounded=0;html=1;labelBackgroundColor=none;startFill=0;endArrow=block;endFill=0;endSize=10;fontFamily=Verdana;fontSize=10;dashed=1;entryX=0.25;entryY=1;entryDx=0;entryDy=0;exitX=0.5;exitY=0;exitDx=0;exitDy=0;startSize=10;edgeStyle=orthogonalEdgeStyle;" parent="1" source="1q5tbRpZf26YUvPeJe0H-2" target="1q5tbRpZf26YUvPeJe0H-1" edge="1">
                    <mxGeometry relative="1" as="geometry">
                        <mxPoint x="563" y="920" as="sourcePoint"/>
                        <mxPoint x="530" y="840" as="targetPoint"/>
                    </mxGeometry>
                </mxCell>
                <mxCell id="AX_kgKKB1tABfzTBOVU4-2" style="rounded=0;html=1;labelBackgroundColor=none;startFill=0;endArrow=block;endFill=0;endSize=10;fontFamily=Verdana;fontSize=10;dashed=1;entryX=0.75;entryY=1;entryDx=0;entryDy=0;exitX=0.5;exitY=0;exitDx=0;exitDy=0;startSize=10;edgeStyle=orthogonalEdgeStyle;" parent="1" source="1q5tbRpZf26YUvPeJe0H-3" target="1q5tbRpZf26YUvPeJe0H-1" edge="1">
                    <mxGeometry relative="1" as="geometry">
                        <mxPoint x="665" y="960" as="sourcePoint"/>
                        <mxPoint x="708" y="860" as="targetPoint"/>
                    </mxGeometry>
                </mxCell>
                <mxCell id="AX_kgKKB1tABfzTBOVU4-3" value="&lt;p style=&quot;margin:0px;margin-top:4px;text-align:center;&quot;&gt;&lt;b&gt;CarritoFacade&lt;/b&gt;&lt;/p&gt;&lt;hr size=&quot;1&quot;&gt;&lt;p style=&quot;margin:0px;margin-left:4px;&quot;&gt;&lt;span style=&quot;background-color: transparent; color: light-dark(rgb(0, 0, 0), rgb(255, 255, 255));&quot;&gt;- carrito: Carrito&lt;br&gt;&lt;/span&gt;&lt;/p&gt;&lt;hr size=&quot;1&quot;&gt;&lt;p style=&quot;margin:0px;margin-left:4px;&quot;&gt;+ agregarProducto(producto: IProducto): void&lt;/p&gt;&lt;p style=&quot;margin:0px;margin-left:4px;&quot;&gt;+ eliminarProducto(codigo: string): void&lt;/p&gt;&lt;p style=&quot;margin:0px;margin-left:4px;&quot;&gt;+ vaciarCarrito(): void&lt;br&gt;+ obtenerItems(): List&amp;lt;CarritoItem&amp;gt;&lt;/p&gt;&lt;p style=&quot;margin:0px;margin-left:4px;&quot;&gt;+ obtenerTotal(): decimal&lt;/p&gt;" style="verticalAlign=top;align=left;overflow=fill;fontSize=12;fontFamily=Helvetica;html=1;rounded=0;shadow=0;comic=0;labelBackgroundColor=none;strokeWidth=1" parent="1" vertex="1">
                    <mxGeometry x="260" y="1605" width="257.5" height="140" as="geometry"/>
                </mxCell>
                <mxCell id="n7P4nilLxwbHK-3E9uwV-1" style="rounded=0;html=1;labelBackgroundColor=none;startFill=0;endArrow=diamond;endFill=0;fontFamily=Verdana;fontSize=10;exitX=0.5;exitY=0;exitDx=0;exitDy=0;entryX=1;entryY=0.75;entryDx=0;entryDy=0;strokeWidth=1;endSize=15;startSize=10;edgeStyle=orthogonalEdgeStyle;" parent="1" source="AX_kgKKB1tABfzTBOVU4-3" target="bO8I1QGUQ7A1xS6eJJKW-11" edge="1">
                    <mxGeometry relative="1" as="geometry">
                        <mxPoint x="470" y="1360" as="sourcePoint"/>
                        <mxPoint x="420" y="1467" as="targetPoint"/>
                    </mxGeometry>
                </mxCell>
            </root>
        </mxGraphModel>
    </diagram>
</mxfile>